<svg xmlns="http://www.w3.org/2000/svg" width="2500" height="897" data-name="Layer 2" viewBox="0 0 298.15 106.95"><path fill="#fff" fill-rule="evenodd" d="M219.01 0h13.41v35.01h-13.41zM35.94 35.01c16.56 0 30.5 11.2 34.67 26.43H55.9c-3.55-7.45-11.16-12.59-19.96-12.59-12.21 0-22.1 9.89-22.1 22.1s9.9 22.1 22.1 22.1c8.8 0 16.41-5.15 19.96-12.6h14.71c-4.17 15.24-18.11 26.43-34.67 26.43C16.09 106.89 0 90.8 0 70.95s16.09-35.94 35.94-35.94m184.29 13.8c16.06 0 29.07 13.01 29.07 29.07s-13.01 29.07-29.07 29.07-29.07-13.01-29.07-29.07 13.01-29.07 29.07-29.07m0 44.37c8.45 0 15.3-6.85 15.3-15.3s-6.85-15.3-15.3-15.3-15.3 6.85-15.3 15.3 6.85 15.3 15.3 15.3M77.88 106.89V34.97H91.8v71.92zM133.64 79c-.92.58-1.85 1.05-2.8 1.43-.92.34-2.19.66-3.82.97l-3.26.61c-3.06.54-5.25 1.21-6.57 1.99-2.24 1.32-3.36 3.38-3.36 6.16q0 3.72 2.04 5.4c1.39 1.09 3.07 1.63 5.04 1.63 3.12 0 5.99-.92 8.61-2.75 2.65-1.83 4.02-5.18 4.13-10.03v-5.4Zm-8.81-6.77c2.68-.34 4.6-.76 5.76-1.27 2.07-.88 3.1-2.26 3.11-4.13 0-2.27-.8-3.84-2.39-4.69q-2.34-1.32-6.93-1.32c-3.43 0-5.86.85-7.28 2.55-1.02 1.26-1.7 2.95-2.04 5.09h-14.01c.31-4.85 1.66-8.84 4.07-11.97 3.84-4.89 10.42-7.33 19.76-7.33 6.08 0 11.48 1.21 16.2 3.62q7.08 3.615 7.08 13.65l-.06 40.47h-13.87l-.02-5.65s-6.49 5.65-18.07 5.65c-5.03 0-8.09-.94-11.39-3.79-3.26-2.89-4.89-6.61-4.89-11.87q0-10.245 7.89-14.82c2.89-1.66 6.52-2.85 12.13-3.57l4.94-.61Zm46.67 34.66h-13.92V51.67l13.33-.02v7.27c2.7-3.63 6.97-6.98 9.95-8.18a24.3 24.3 0 0 1 5.35-1.45c1.43-.21 3.72-.19 3.72-.19l.03 14.01-2.55-.17-1.71-.05c-5.79 0-10.63 4.21-12.6 7.94-1.1 2.11-1.66 5.37-1.66 9.79l.05 26.27Zm91.6-30.91V62.51h35.04v13.47zm16.34-70.12 9.58 9.58-34.36 34.36-9.58-9.58z" data-name="Layer 1"/></svg>