<!DOCTYPE svg PUBLIC "-//W3C//DTD SVG 1.1//EN" "http://www.w3.org/Graphics/SVG/1.1/DTD/svg11.dtd">
<!-- Uploaded to: SVG Repo, www.svgrepo.com, Transformed by: SVG Repo Mixer Tools -->
<svg xmlns="http://www.w3.org/2000/svg" width="800" height="800" fill="#000" viewBox="0 0 32 32"><g id="SVGRepo_iconCarrier"><title>clock</title><g id="Page-1" fill="none" fill-rule="evenodd" stroke-width="0"><g id="Icon-Set" fill="#000" transform="translate(-412 -359)"><path id="clock" d="M438 376h2v-2h-2zm-10 13c-7.732 0-14-6.268-14-14 0-7.731 6.268-14 14-14s14 6.269 14 14c0 7.732-6.268 14-14 14m0-30c-8.837 0-16 7.164-16 16s7.163 16 16 16 16-7.163 16-16-7.163-16-16-16m6.076 8.273 1.384 1.387 1.384-1.387-1.384-1.386zm-.293 14.505 1.414 1.414 1.414-1.414-1.414-1.414zM428 363a1 1 0 0 0-1 1v10.023h-8a1 1 0 0 0 0 2h9c.553 0 1-.447 1-.999V364a1 1 0 0 0-1-1m-6.308 4.323-1.414-1.414-1.414 1.414 1.414 1.414zm-2.959 14.509 1.384 1.387 1.384-1.387-1.384-1.387zM427 387h2v-2h-2z"/></g></g></g></svg>