<?xml version="1.0" encoding="utf-8"?><!-- Uploaded to: SVG Repo, www.svgrepo.com, Generator: SVG Repo Mixer Tools -->
<svg version="1.1" id="Uploaded to svgrepo.com" xmlns="http://www.w3.org/2000/svg" xmlns:xlink="http://www.w3.org/1999/xlink" 
	 width="800px" height="800px" viewBox="0 0 32 32" xml:space="preserve">
<style type="text/css">
	.stone_een{fill:#0B1719;}
</style>
<path class="stone_een" d="M9.184,4C9.597,2.837,10.696,2,12,2h8c1.304,0,2.403,0.837,2.816,2H9.184z M27.651,8.314l-1.495,14.198
	c-0.099,0.937-0.632,1.774-1.44,2.258l-7.173,4.304c-0.475,0.285-1.009,0.427-1.544,0.427s-1.068-0.142-1.543-0.427L7.283,24.77
	c-0.808-0.485-1.341-1.321-1.44-2.258L4.349,8.314C4.162,6.543,5.551,5,7.332,5h17.335C26.449,5,27.838,6.543,27.651,8.314z
	 M6.939,9.547c0.017,0,0.035-0.001,0.053-0.003c0.274-0.029,0.474-0.275,0.445-0.549L7.332,8C7.303,7.726,7.049,7.522,6.783,7.555
	C6.508,7.584,6.309,7.83,6.338,8.104l0.104,0.995C6.469,9.356,6.686,9.547,6.939,9.547z M7.348,13.426
	c0.018,0,0.035-0.001,0.053-0.003c0.275-0.029,0.474-0.275,0.445-0.549l-0.204-1.935c-0.029-0.275-0.284-0.479-0.549-0.445
	c-0.275,0.029-0.474,0.275-0.445,0.549l0.204,1.935C6.878,13.235,7.095,13.426,7.348,13.426z M7.755,17.295
	c0.018,0,0.035-0.001,0.053-0.003c0.275-0.029,0.474-0.275,0.445-0.549l-0.204-1.935C8.02,14.533,7.771,14.331,7.5,14.363
	c-0.275,0.029-0.474,0.275-0.445,0.549l0.204,1.935C7.285,17.104,7.502,17.295,7.755,17.295z M8.162,21.164
	c0.018,0,0.035-0.001,0.053-0.003c0.275-0.029,0.474-0.275,0.445-0.549l-0.204-1.935c-0.029-0.274-0.28-0.477-0.549-0.445
	c-0.275,0.029-0.474,0.275-0.445,0.549l0.204,1.935C7.692,20.973,7.909,21.164,8.162,21.164z M10.402,23.135l-1.668-1
	c-0.237-0.142-0.544-0.065-0.686,0.171c-0.142,0.237-0.065,0.544,0.171,0.686l1.668,1c0.081,0.048,0.169,0.071,0.257,0.071
	c0.17,0,0.335-0.086,0.429-0.243C10.716,23.584,10.639,23.277,10.402,23.135z M13.734,25.142l-1.668-1
	c-0.237-0.142-0.544-0.065-0.686,0.171c-0.142,0.237-0.065,0.544,0.171,0.686l1.668,1c0.081,0.048,0.169,0.071,0.257,0.071
	c0.17,0,0.335-0.086,0.429-0.243C14.048,25.591,13.971,25.284,13.734,25.142z M17.292,26.309c-0.142-0.237-0.448-0.313-0.686-0.171
	L16,26.501l-0.598-0.359c-0.237-0.143-0.544-0.065-0.686,0.171S14.651,26.858,14.888,27l0.598,0.358
	c0.155,0.094,0.333,0.143,0.515,0.143c0.181,0,0.359-0.049,0.515-0.143l0.606-0.364C17.358,26.853,17.435,26.546,17.292,26.309z
	 M20.628,24.308c-0.142-0.237-0.449-0.313-0.686-0.171l-1.668,1c-0.237,0.142-0.313,0.449-0.171,0.686
	c0.094,0.156,0.259,0.243,0.429,0.243c0.087,0,0.176-0.023,0.257-0.071l1.668-1C20.694,24.852,20.771,24.544,20.628,24.308z
	 M23.96,22.306c-0.142-0.237-0.449-0.313-0.686-0.171l-1.668,1c-0.237,0.142-0.313,0.449-0.171,0.686
	c0.094,0.156,0.259,0.243,0.429,0.243c0.087,0,0.176-0.023,0.257-0.071l1.668-1C24.025,22.85,24.102,22.543,23.96,22.306z
	 M24.539,18.771c0.029-0.274-0.17-0.521-0.445-0.549c-0.272-0.029-0.521,0.17-0.549,0.445l-0.204,1.935
	c-0.029,0.274,0.17,0.521,0.445,0.549c0.018,0.002,0.035,0.003,0.053,0.003c0.253,0,0.47-0.191,0.497-0.448L24.539,18.771z
	 M24.946,14.903c0.029-0.274-0.17-0.521-0.445-0.549c-0.274-0.03-0.521,0.17-0.549,0.445l-0.204,1.934
	c-0.029,0.274,0.17,0.521,0.445,0.549c0.018,0.002,0.035,0.003,0.053,0.003c0.253,0,0.47-0.191,0.497-0.448L24.946,14.903z
	 M25.354,11.034c0.029-0.274-0.17-0.521-0.445-0.549c-0.268-0.03-0.521,0.17-0.549,0.445l-0.204,1.935
	c-0.029,0.274,0.17,0.521,0.445,0.549c0.018,0.002,0.035,0.003,0.053,0.003c0.253,0,0.47-0.191,0.497-0.448L25.354,11.034z
	 M25.662,8.105c0.029-0.274-0.17-0.521-0.445-0.549C24.949,7.523,24.696,7.726,24.668,8l-0.104,0.995
	c-0.029,0.274,0.17,0.521,0.445,0.549c0.018,0.002,0.035,0.003,0.053,0.003c0.253,0,0.47-0.191,0.497-0.448L25.662,8.105z"/>
</svg>