<?xml version="1.0" encoding="UTF-8"?>
<!-- Generator: Adobe Illustrator 24.0.2, SVG Export Plug-In . SVG Version: 6.00 Build 0)  -->
<svg version="1.1" id="Layer_1" xmlns="http://www.w3.org/2000/svg" xmlns:xlink="http://www.w3.org/1999/xlink" x="0px" y="0px" viewBox="0 0 850.3 850.4" style="enable-background:new 0 0 850.3 850.4;" xml:space="preserve">
<style type="text/css">
	.st0{display:none;}
	.st1{fill-rule:evenodd;clip-rule:evenodd;fill:#E91C23;}
	.st2{fill-rule:evenodd;clip-rule:evenodd;fill:#9D161A;}
	
		.st3{fill-rule:evenodd;clip-rule:evenodd;fill:#FFFFFF;stroke:#B02329;stroke-width:0.8012;stroke-linecap:round;stroke-linejoin:round;stroke-miterlimit:10;}
	
		.st4{fill-rule:evenodd;clip-rule:evenodd;fill:#E91C23;stroke:#B02329;stroke-width:0.8012;stroke-linecap:round;stroke-linejoin:round;stroke-miterlimit:10;}
	
		.st5{fill-rule:evenodd;clip-rule:evenodd;fill:#E91C23;stroke:#B72A30;stroke-width:0.8012;stroke-linecap:round;stroke-linejoin:round;stroke-miterlimit:10;}
	
		.st6{fill-rule:evenodd;clip-rule:evenodd;fill:#B72A30;stroke:#9D161A;stroke-width:0.8012;stroke-linecap:round;stroke-linejoin:round;stroke-miterlimit:10;}
	
		.st7{fill-rule:evenodd;clip-rule:evenodd;fill:#B02329;stroke:#B02329;stroke-width:0.8012;stroke-linecap:round;stroke-linejoin:round;stroke-miterlimit:10;}
	.st8{fill-rule:evenodd;clip-rule:evenodd;fill:url(#SVGID_1_);}
	.st9{fill-rule:evenodd;clip-rule:evenodd;fill:url(#SVGID_2_);}
	.st10{fill-rule:evenodd;clip-rule:evenodd;fill:url(#SVGID_3_);}
	.st11{fill-rule:evenodd;clip-rule:evenodd;fill:#FEFEFE;}
	.st12{fill:#9D1419;}
	.st13{fill:#E91920;}
</style>
<g id="GUEbIE.tif" class="st0">
	
		<image style="display:inline;overflow:visible;" width="577" height="574" id="Layer_0_1_" xlink:href="favicon_files/E21EB34315FC981D.png" transform="matrix(1 0 0 1 136.6543 138.1969)">
	</image>
</g>
<g>
	<g>
		<circle class="st1" cx="527.4" cy="315.2" r="280.4"/>
		<path class="st2" d="M581.2,107.5c0,0,156.9,22.6,158.4,24.3c42.5,49.2,68.3,113.3,68.3,183.4c0,98.1-50.4,184.5-126.7,234.6    c-0.8,0.6-216.4-31.2-216.4-31.2L581.2,107.5z"/>
		<g>
			<path class="st3" d="M380.8,174.1c-3.2-15.4,3.8-25.9,19.3-29.2l175-37.5c15.6-3.3,26.1,3.4,29.3,18.8L671.8,453     c3.2,15.4-3.7,25.9-19.3,29.2l-175,37.5c-15.6,3.3-26.1-3.4-29.3-18.8L380.8,174.1z"/>
		</g>
		<circle class="st4" cx="557.9" cy="466.6" r="16"/>
		<polygon class="st5" points="457.7,149.1 521.8,135.7 523.4,141.6 459.4,155.8   "/>
		<polygon class="st6" points="398.4,181.4 588.3,141.3 456.9,455.4   "/>
		<polygon class="st7" points="588.3,142.1 646.8,416.2 456.9,456.2   "/>
		<g>
			<linearGradient id="SVGID_1_" gradientUnits="userSpaceOnUse" x1="42.4772" y1="267.8658" x2="438.6774" y2="267.8658">
				<stop offset="0" style="stop-color:#F08200"/>
				<stop offset="0.7763" style="stop-color:#A31500"/>
			</linearGradient>
			<path class="st8" d="M43.1,306.7c-3.3-16.1,7.1-32,23.2-35.4l335.4-70.8c15.8-3.3,31.5,6.8,35.1,22.7l1.2,5.3     c3.6,15.9-6.4,31.6-22.3,35L79.5,335.2c-16.2,3.4-32-6.9-35.3-23.1L43.1,306.7z"/>
		</g>
		<g>
			<linearGradient id="SVGID_2_" gradientUnits="userSpaceOnUse" x1="130.8321" y1="358.4665" x2="527.4161" y2="358.4665">
				<stop offset="0" style="stop-color:#F08200"/>
				<stop offset="0.4856" style="stop-color:#A31500"/>
			</linearGradient>
			<path class="st9" d="M131.4,397.4c-3.3-16.2,7.1-32,23.3-35.5l335.7-71c15.8-3.4,31.6,6.8,35.1,22.8l1.2,5.3     c3.6,16-6.4,31.7-22.3,35.1l-336.5,71.8c-16.2,3.5-32-6.9-35.4-23.1L131.4,397.4z"/>
		</g>
		<g>
			<linearGradient id="SVGID_3_" gradientUnits="userSpaceOnUse" x1="93.9777" y1="477.8429" x2="490.5616" y2="477.8429">
				<stop offset="0" style="stop-color:#F08200"/>
				<stop offset="0.4856" style="stop-color:#A31500"/>
			</linearGradient>
			<path class="st10" d="M94.6,516.8c-3.3-16.2,7.1-32,23.3-35.5l335.7-71c15.8-3.4,31.6,6.8,35.1,22.8l1.2,5.3     c3.6,16-6.4,31.7-22.3,35.1l-336.5,71.8c-16.2,3.5-32-6.9-35.4-23.1L94.6,516.8z"/>
		</g>
		<g>
			<path class="st11" d="M259.3,230.6l142.4-30.1c15.8-3.3,31.5,6.8,35.1,22.7l1.2,5.3c3.6,15.9-6.4,31.6-22.3,35l-169,36     c0,0-1.1-8.4,3.9-35.1C255.6,237.8,259.3,230.6,259.3,230.6z"/>
		</g>
		<g>
			<path class="st11" d="M246.7,342.4l243.2-51.4c15.8-3.3,31.5,6.8,35.1,22.7l1.2,5.3c3.6,15.9-6.4,31.6-22.3,35L260.4,406     c0,0-5.2-15.5-8.3-30.4C249,360.7,246.7,342.4,246.7,342.4z"/>
		</g>
		<g>
			<path class="st11" d="M279.3,447.1L453,410.4c15.8-3.3,31.5,6.8,35.1,22.7l1.2,5.3c3.6,15.9-6.4,31.6-22.3,35l-147.5,31.4     c0,0-9.4-9.7-21.2-26.5C286.1,461,279.3,447.1,279.3,447.1z"/>
		</g>
		<g>
			<path class="st11" d="M495.6,279.2c24.1,0.1,43.6,19.5,43.8,43.6l12-0.1c-0.3-30.7-25.1-55.4-55.8-55.6L495.6,279.2z"/>
		</g>
		<g>
			<path class="st11" d="M496,256.8c36.6,0.1,66.2,29.6,66.6,66.2l11.2-0.1c-0.4-42.8-35.1-77.2-77.8-77.3L496,256.8z"/>
		</g>
		<g>
			<path class="st11" d="M495,233.8c24.9-0.2,46.1,8.4,63.8,25.9c17.7,17.4,26.6,38.6,26.8,63.4l12.3-0.1     c-0.2-28.2-10.3-52.3-30.4-72.1s-44.3-29.6-72.6-29.4L495,233.8z"/>
		</g>
	</g>
	<g>
		<path class="st12" d="M540.9,738.5v77.1h-13.1v-60.9l-26.8,60.9h-14.9l-26.8-60.9v60.9h-13.1v-77.1h20.9l26.4,60.1l26.4-60.1    H540.9z"/>
		<path class="st12" d="M601.3,738.5h15.5l-28.7,54h-0.1v23.1H575v-23.1l-28.7-54h15.5l19.8,40.5L601.3,738.5z"/>
		<path class="st12" d="M621.3,738.5h67.7v14.7h-67.7V738.5z M634.5,761.4v7.6c6,0,13,0,21.1,0s16,0,23.8-0.1v14.8h-44.9V801h54.5    v14.7h-67.7v-54.2H634.5z"/>
	</g>
	<g>
		<path class="st13" d="M198.8,814v-61h-28.1v-12.9h69V753h-28.1v61H198.8z"/>
		<path class="st13" d="M253.4,814v-73.9h66V753h-53.2v48.1h53.3V814H253.4z M275.7,781.9V771h41v10.9H275.7z"/>
		<path class="st13" d="M369.4,814c-20.6,0-35.9-16.3-35.9-37.7c0-21.8,15.3-36.2,35.9-36.2h40.1V753h-40.1c-13.2,0-23,9.9-23,23.9    c0,13.9,9.7,24.2,23,24.2h40.1V814H369.4z"/>
	</g>
	<g>
		<path d="M48.5,703v-73.9h66V642H61.4v48.1h53.3V703H48.5z M70.8,670.9V660h41v10.9H70.8z"/>
		<path d="M202.1,703l-31-30.2L140.4,703h-16.8l39.7-38.4l-36.8-35.5h17.8l28.2,27.4l27.8-27.4h16.8l-36.8,35.5l40.1,38.4H202.1z"/>
		<path d="M253.7,682.5V670h29.7c9,0,14.4-5.7,14.4-14c0-8.5-5.4-13.9-14.4-13.9h-39.1v61h-12.8v-73.9h52c17.1,0,27,10.3,27,26.4    c0,16-10,26.9-27,26.9H253.7z"/>
		<path d="M388,703L377,684.4h-35l6.1-10.5h22.7l-16.5-27.7L320.7,703H306l42.5-70.8c1.5-2.5,3.5-4.2,6.3-4.2c2.8,0,4.7,1.6,6.2,4.2    l42.6,70.8H388z"/>
		<path d="M425.6,648.9V703h-12.3v-67.1c0-4.8,2.5-7.7,6.6-7.7c1.9,0,3.6,0.7,5.5,2.6l52.2,51.8v-54.1h12.3v67.7    c0,4.9-2.6,7.7-6.4,7.7c-2.1,0-4.1-0.9-5.9-2.7L425.6,648.9z"/>
		<path d="M504.4,703v-12.9h55.4c6.9,0,10.8-3.9,10.8-9.7c0-6.3-3.9-9.6-10.8-9.6h-34c-13.9,0-22.6-8.8-22.6-21    c0-11.9,8-20.7,22.8-20.7h53.1V642H526c-5.9,0-9.4,3.5-9.4,9c0,5.6,3.6,8.9,9.3,8.9h33.9c14.9,0,23,7,23,21.4    c0,12.4-7.5,21.7-23,21.7H504.4z"/>
		<path d="M596.6,703v-73.9h12.9V703H596.6z"/>
		<path d="M658.8,703c-20.6,0-35.9-16.3-35.9-37.7c0-21.8,15.3-36.2,35.9-36.2h18c21.4,0,36.2,14.7,36.2,36.2    c0,21.5-15.2,37.7-36.2,37.7H658.8z M676.8,690.1c13.6,0,23.3-10.3,23.3-24.2c0-13.9-9.7-23.9-23.3-23.9h-18    c-13.2,0-23,9.9-23,23.9c0,13.9,9.7,24.2,23,24.2H676.8z"/>
		<path d="M737.5,648.9V703h-12.3v-67.1c0-4.8,2.5-7.7,6.6-7.7c1.9,0,3.6,0.7,5.5,2.6l52.2,51.8v-54.1h12.3v67.7    c0,4.9-2.6,7.7-6.4,7.7c-2.1,0-4.1-0.9-5.9-2.7L737.5,648.9z"/>
	</g>
</g>
</svg>