<?xml version="1.0" encoding="UTF-8"?>
<!-- Generator: Adobe Illustrator 24.0.2, SVG Export Plug-In . SVG Version: 6.00 Build 0)  -->
<svg version="1.1" id="Layer_1" xmlns="http://www.w3.org/2000/svg" xmlns:xlink="http://www.w3.org/1999/xlink" x="0px" y="0px" viewBox="0 0 2551.2 850.4" style="enable-background:new 0 0 2551.2 850.4;" xml:space="preserve">
<style type="text/css">
	.st0{display:none;}
	.st1{fill-rule:evenodd;clip-rule:evenodd;fill:#E91C23;}
	.st2{fill-rule:evenodd;clip-rule:evenodd;fill:#9D161A;}
	
		.st3{fill-rule:evenodd;clip-rule:evenodd;fill:#FFFFFF;stroke:#B02329;stroke-width:0.9739;stroke-linecap:round;stroke-linejoin:round;stroke-miterlimit:10;}
	
		.st4{fill-rule:evenodd;clip-rule:evenodd;fill:#E91C23;stroke:#B02329;stroke-width:0.9739;stroke-linecap:round;stroke-linejoin:round;stroke-miterlimit:10;}
	
		.st5{fill-rule:evenodd;clip-rule:evenodd;fill:#E91C23;stroke:#B72A30;stroke-width:0.9739;stroke-linecap:round;stroke-linejoin:round;stroke-miterlimit:10;}
	
		.st6{fill-rule:evenodd;clip-rule:evenodd;fill:#B72A30;stroke:#9D161A;stroke-width:0.9739;stroke-linecap:round;stroke-linejoin:round;stroke-miterlimit:10;}
	
		.st7{fill-rule:evenodd;clip-rule:evenodd;fill:#B02329;stroke:#B02329;stroke-width:0.9739;stroke-linecap:round;stroke-linejoin:round;stroke-miterlimit:10;}
	.st8{fill-rule:evenodd;clip-rule:evenodd;fill:url(#SVGID_1_);}
	.st9{fill-rule:evenodd;clip-rule:evenodd;fill:url(#SVGID_2_);}
	.st10{fill-rule:evenodd;clip-rule:evenodd;fill:url(#SVGID_3_);}
	.st11{fill-rule:evenodd;clip-rule:evenodd;fill:#FEFEFE;}
	.st12{fill:#9D1419;}
	.st13{fill:#E91920;}
</style>
<g id="GUEbIE.tif" class="st0">
	
		<image style="display:inline;overflow:visible;enable-background:new    ;" width="578" height="575" id="Layer_0_1_" xlink:href="logo_files/E21EB34315FC981E.png" transform="matrix(0.9983 0 0 0.9983 -2481.9277 138.1956)">
	</image>
</g>
<g>
	<g>
		<circle class="st1" cx="628.3" cy="425.2" r="340.8"/>
		<path class="st2" d="M693.6,172.7c0,0,190.7,27.5,192.5,29.5c51.7,59.8,83,137.7,83,222.9c0,119.2-61.3,224.3-154,285.2    c-1,0.7-263-37.9-263-37.9L693.6,172.7z"/>
		<g>
			<path class="st3" d="M450,253.7c-3.9-18.7,4.6-31.5,23.5-35.5l212.7-45.6c19-4,31.7,4.1,35.6,22.9l82,397.1     c3.9,18.7-4.5,31.5-23.5,35.5l-212.7,45.6c-19,4-31.7-4.1-35.6-22.9L450,253.7z"/>
		</g>
		<circle class="st4" cx="665.3" cy="609.2" r="19.4"/>
		<polygon class="st5" points="543.5,223.2 621.4,207 623.3,214.2 545.5,231.4   "/>
		<polygon class="st6" points="471.5,262.6 702.2,213.8 542.5,595.6   "/>
		<polygon class="st7" points="702.2,214.8 773.3,547.8 542.5,596.6   "/>
		<g>
			
				<linearGradient id="SVGID_1_" gradientUnits="userSpaceOnUse" x1="38.7429" y1="481.6779" x2="520.3975" y2="481.6779" gradientTransform="matrix(1 0 0 -1 0 849.2756)">
				<stop offset="0" style="stop-color:#F08200"/>
				<stop offset="0.7763" style="stop-color:#A31500"/>
			</linearGradient>
			<path class="st8" d="M39.5,414.9c-4-19.6,8.6-38.9,28.2-43l407.7-86.1c19.2-4,38.3,8.3,42.7,27.6l1.5,6.4     c4.4,19.3-7.8,38.4-27.1,42.5l-408.7,87c-19.7,4.1-38.9-8.4-42.9-28.1L39.5,414.9z"/>
		</g>
		<g>
			
				<linearGradient id="SVGID_2_" gradientUnits="userSpaceOnUse" x1="146.1976" y1="371.549" x2="628.3381" y2="371.549" gradientTransform="matrix(1 0 0 -1 0 849.2756)">
				<stop offset="0" style="stop-color:#F08200"/>
				<stop offset="0.4856" style="stop-color:#A31500"/>
			</linearGradient>
			<path class="st9" d="M146.9,525.1c-4-19.7,8.6-38.9,28.3-43.2l408.1-86.3c19.2-4.1,38.4,8.3,42.7,27.7l1.5,6.4     c4.4,19.4-7.8,38.5-27.1,42.7l-409,87.3c-19.7,4.3-38.9-8.4-43-28.1L146.9,525.1z"/>
		</g>
		<g>
			
				<linearGradient id="SVGID_3_" gradientUnits="userSpaceOnUse" x1="101.3439" y1="226.4125" x2="583.4845" y2="226.4125" gradientTransform="matrix(1 0 0 -1 0 849.2756)">
				<stop offset="0" style="stop-color:#F08200"/>
				<stop offset="0.4856" style="stop-color:#A31500"/>
			</linearGradient>
			<path class="st10" d="M102.1,670.3c-4-19.7,8.6-38.9,28.3-43.2l408.1-86.3c19.2-4.1,38.4,8.3,42.7,27.7l1.5,6.4     c4.4,19.4-7.8,38.5-27.1,42.7l-409,87.3c-19.7,4.3-38.9-8.4-43-28.1L102.1,670.3z"/>
		</g>
		<g>
			<path class="st11" d="M302.4,322.4l173.1-36.6c19.2-4,38.3,8.3,42.7,27.6l1.5,6.4c4.4,19.3-7.8,38.4-27.1,42.5l-205.4,43.8     c0,0-1.3-10.2,4.7-42.7C297.8,331,302.4,322.4,302.4,322.4z"/>
		</g>
		<g>
			<path class="st11" d="M287,458.3l295.6-62.5c19.2-4,38.3,8.3,42.7,27.6l1.5,6.4c4.4,19.3-7.8,38.4-27.1,42.5l-296,63.1     c0,0-6.3-18.8-10.1-37C289.9,480.5,287,458.3,287,458.3z"/>
		</g>
		<g>
			<path class="st11" d="M326.7,585.5l211-44.6c19.2-4,38.3,8.3,42.7,27.6l1.5,6.4c4.4,19.3-7.8,38.4-27.1,42.5l-179.3,38.2     c0,0-11.4-11.8-25.8-32.2C335,602.4,326.7,585.5,326.7,585.5z"/>
		</g>
		<g>
			<path class="st11" d="M589.5,381.4c29.3,0.1,53,23.7,53.2,53l14.6-0.1c-0.4-37.3-30.5-67.3-67.8-67.6V381.4z"/>
		</g>
		<g>
			<path class="st11" d="M590.1,354.2c44.5,0.1,80.5,36,81,80.5l13.6-0.1c-0.5-52-42.7-93.8-94.6-94L590.1,354.2z"/>
		</g>
		<g>
			<path class="st11" d="M588.9,326.3c30.3-0.2,56,10.2,77.6,31.5c21.5,21.2,32.3,46.9,32.6,77.1l15-0.1     c-0.2-34.3-12.5-63.6-37-87.6c-24.4-24.1-53.8-36-88.2-35.7L588.9,326.3z"/>
		</g>
	</g>
	<g>
		<g>
			<path class="st12" d="M2006.3,457.5v149.6h-25.4V488.9l-52,118.2h-28.9l-52-118.2v118.2h-25.4V457.5h40.5l51.4,116.8l51.2-116.6     h40.5V457.5z"/>
			<path class="st12" d="M2123.2,457.5h30.1l-55.7,104.8h-0.2v44.8H2072v-44.8l-55.7-104.8h30.1l38.4,78.6L2123.2,457.5z"/>
			<path class="st12" d="M2162.2,457.5h131.3V486h-131.3V457.5z M2187.9,502.1v14.7c11.6,0,25.2,0,40.9,0s31,0,46.2-0.2v28.5h-87.1     v33.6h105.7v28.5h-131.3V502.1H2187.9z"/>
		</g>
		<g>
			<path class="st13" d="M1342.5,604.2V485.8H1288v-25h133.9v25h-54.5v118.3H1342.5z"/>
			<path class="st13" d="M1448.5,604.2V460.8h128v25h-103.2v93.3h103.4v25H1448.5z M1491.7,541.7v-21.1h79.5v21.1H1491.7z"/>
			<path class="st13" d="M1673.5,604.2c-40,0-69.7-31.6-69.7-73.1c0-42.3,29.7-70.2,69.7-70.2h77.8v25h-77.8     c-25.6,0-44.6,19.2-44.6,46.4c0,27,18.8,47,44.6,47h77.8v25H1673.5z"/>
		</g>
		<g>
			<path d="M1050.9,388.8V245.4h128v25h-103.2v93.3h103.4v25H1050.9z M1094.2,326.4v-21.1h79.5v21.1H1094.2z"/>
			<path d="M1348.8,388.8l-60.1-58.6l-59.6,58.6h-32.6l77-74.5l-71.4-68.9h34.5l54.7,53.2l53.9-53.2h32.6l-71.4,68.9l77.8,74.5     H1348.8z"/>
			<path d="M1449.1,348.9v-24.3h57.6c17.5,0,27.9-11.1,27.9-27.2c0-16.5-10.5-27-27.9-27h-75.9v118.3H1406V245.4h100.9     c33.2,0,52.4,20,52.4,51.2c0,31-19.4,52.2-52.4,52.2H1449.1z"/>
			<path d="M1709.6,388.8l-21.5-36.1h-67.9l11.8-20.4h44l-32-53.7l-65.2,110h-28.5l82.5-137.4c2.9-4.9,6.8-8.1,12.2-8.1     c5.4,0,9.1,3.1,12,8.1l82.6,137.4h-30.1V388.8z"/>
			<path d="M1782.4,283.9v105h-23.9V258.6c0-9.3,4.9-14.9,12.8-14.9c3.7,0,7,1.4,10.7,5l101.3,100.5v-105h23.9v131.3     c0,9.5-5,14.9-12.4,14.9c-4.1,0-8-1.7-11.4-5.2L1782.4,283.9z"/>
			<path d="M1935.3,388.8v-25h107.5c13.4,0,21-7.6,21-18.8c0-12.2-7.6-18.6-21-18.6h-66c-27,0-43.8-17.1-43.8-40.7     c0-23.1,15.5-40.2,44.2-40.2h103v25h-103c-11.4,0-18.2,6.8-18.2,17.5c0,10.9,7,17.3,18,17.3h65.8c28.9,0,44.6,13.6,44.6,41.5     c0,24.1-14.6,42.1-44.6,42.1L1935.3,388.8L1935.3,388.8z"/>
			<path d="M2114.1,388.8V245.4h25v143.4H2114.1z"/>
			<path d="M2235,388.8c-40,0-69.7-31.6-69.7-73.1c0-42.3,29.7-70.2,69.7-70.2h34.9c41.5,0,70.2,28.5,70.2,70.2     s-29.5,73.1-70.2,73.1H2235z M2269.9,363.8c26.4,0,45.2-20,45.2-47c0-27-18.8-46.4-45.2-46.4H2235c-25.6,0-44.6,19.2-44.6,46.4     c0,27,18.8,47,44.6,47H2269.9z"/>
			<path d="M2387.7,283.9v105h-23.9V258.6c0-9.3,4.9-14.9,12.8-14.9c3.7,0,7,1.4,10.7,5l101.3,100.5v-105h23.9v131.3     c0,9.5-5,14.9-12.4,14.9c-4.1,0-8-1.7-11.4-5.2L2387.7,283.9z"/>
		</g>
	</g>
</g>
</svg>