<?xml version="1.0" encoding="UTF-8"?>
<!-- Generator: Adobe Illustrator 24.0.2, SVG Export Plug-In . SVG Version: 6.00 Build 0)  -->
<svg xmlns="http://www.w3.org/2000/svg" xml:space="preserve" id="Layer_1" x="0" y="0" viewBox="0 0 2551.2 850.4"><style type="text/css">.st11{fill-rule:evenodd;clip-rule:evenodd;fill:#fefefe}</style><circle cx="628.3" cy="425.2" r="340.8" style="fill-rule:evenodd;clip-rule:evenodd;fill:#e91c23"/><path d="M693.6 172.7s190.7 27.5 192.5 29.5c51.7 59.8 83 137.7 83 222.9 0 119.2-61.3 224.3-154 285.2-1 .7-263-37.9-263-37.9z" style="fill-rule:evenodd;clip-rule:evenodd;fill:#9d161a"/><path d="M450 253.7c-3.9-18.7 4.6-31.5 23.5-35.5l212.7-45.6c19-4 31.7 4.1 35.6 22.9l82 397.1c3.9 18.7-4.5 31.5-23.5 35.5l-212.7 45.6c-19 4-31.7-4.1-35.6-22.9z" style="fill-rule:evenodd;clip-rule:evenodd;fill:#fff;stroke:#b02329;stroke-width:.9739;stroke-linecap:round;stroke-linejoin:round;stroke-miterlimit:10"/><circle cx="665.3" cy="609.2" r="19.4" style="fill-rule:evenodd;clip-rule:evenodd;fill:#e91c23;stroke:#b02329;stroke-width:.9739;stroke-linecap:round;stroke-linejoin:round;stroke-miterlimit:10"/><path d="m543.5 223.2 77.9-16.2 1.9 7.2-77.8 17.2z" style="fill-rule:evenodd;clip-rule:evenodd;fill:#e91c23;stroke:#b72a30;stroke-width:.9739;stroke-linecap:round;stroke-linejoin:round;stroke-miterlimit:10"/><path d="m471.5 262.6 230.7-48.8-159.7 381.8z" style="fill-rule:evenodd;clip-rule:evenodd;fill:#b72a30;stroke:#9d161a;stroke-width:.9739;stroke-linecap:round;stroke-linejoin:round;stroke-miterlimit:10"/><path d="m702.2 214.8 71.1 333-230.8 48.8z" style="fill-rule:evenodd;clip-rule:evenodd;fill:#b02329;stroke:#b02329;stroke-width:.9739;stroke-linecap:round;stroke-linejoin:round;stroke-miterlimit:10"/><linearGradient id="SVGID_1_" x1="38.743" x2="520.398" y1="481.678" y2="481.678" gradientTransform="matrix(1 0 0 -1 0 849.276)" gradientUnits="userSpaceOnUse"><stop offset="0" style="stop-color:#f08200"/><stop offset=".776" style="stop-color:#a31500"/></linearGradient><path d="M39.5 414.9c-4-19.6 8.6-38.9 28.2-43l407.7-86.1c19.2-4 38.3 8.3 42.7 27.6l1.5 6.4c4.4 19.3-7.8 38.4-27.1 42.5l-408.7 87c-19.7 4.1-38.9-8.4-42.9-28.1z" style="fill-rule:evenodd;clip-rule:evenodd;fill:url(#SVGID_1_)"/><linearGradient id="SVGID_2_" x1="146.198" x2="628.338" y1="371.549" y2="371.549" gradientTransform="matrix(1 0 0 -1 0 849.276)" gradientUnits="userSpaceOnUse"><stop offset="0" style="stop-color:#f08200"/><stop offset=".486" style="stop-color:#a31500"/></linearGradient><path d="M146.9 525.1c-4-19.7 8.6-38.9 28.3-43.2l408.1-86.3c19.2-4.1 38.4 8.3 42.7 27.7l1.5 6.4c4.4 19.4-7.8 38.5-27.1 42.7l-409 87.3c-19.7 4.3-38.9-8.4-43-28.1z" style="fill-rule:evenodd;clip-rule:evenodd;fill:url(#SVGID_2_)"/><linearGradient id="SVGID_3_" x1="101.344" x2="583.485" y1="226.412" y2="226.412" gradientTransform="matrix(1 0 0 -1 0 849.276)" gradientUnits="userSpaceOnUse"><stop offset="0" style="stop-color:#f08200"/><stop offset=".486" style="stop-color:#a31500"/></linearGradient><path d="M102.1 670.3c-4-19.7 8.6-38.9 28.3-43.2l408.1-86.3c19.2-4.1 38.4 8.3 42.7 27.7l1.5 6.4c4.4 19.4-7.8 38.5-27.1 42.7l-409 87.3c-19.7 4.3-38.9-8.4-43-28.1z" style="fill-rule:evenodd;clip-rule:evenodd;fill:url(#SVGID_3_)"/><path d="m302.4 322.4 173.1-36.6c19.2-4 38.3 8.3 42.7 27.6l1.5 6.4c4.4 19.3-7.8 38.4-27.1 42.5l-205.4 43.8s-1.3-10.2 4.7-42.7c5.9-32.4 10.5-41 10.5-41M287 458.3l295.6-62.5c19.2-4 38.3 8.3 42.7 27.6l1.5 6.4c4.4 19.3-7.8 38.4-27.1 42.5l-296 63.1s-6.3-18.8-10.1-37c-3.7-17.9-6.6-40.1-6.6-40.1m39.7 127.2 211-44.6c19.2-4 38.3 8.3 42.7 27.6l1.5 6.4c4.4 19.3-7.8 38.4-27.1 42.5l-179.3 38.2s-11.4-11.8-25.8-32.2c-14.7-21-23-37.9-23-37.9" class="st11"/><path d="M589.5 381.4c29.3.1 53 23.7 53.2 53l14.6-.1c-.4-37.3-30.5-67.3-67.8-67.6z" class="st11"/><path d="M590.1 354.2c44.5.1 80.5 36 81 80.5l13.6-.1c-.5-52-42.7-93.8-94.6-94z" class="st11"/><path d="M588.9 326.3c30.3-.2 56 10.2 77.6 31.5 21.5 21.2 32.3 46.9 32.6 77.1l15-.1c-.2-34.3-12.5-63.6-37-87.6q-36.6-36.15-88.2-35.7z" class="st11"/><path d="M2006.3 457.5v149.6h-25.4V488.9l-52 118.2H1900l-52-118.2v118.2h-25.4V457.5h40.5l51.4 116.8 51.2-116.6h40.5v-.2zm116.9 0h30.1l-55.7 104.8h-.2v44.8H2072v-44.8l-55.7-104.8h30.1l38.4 78.6zm39 0h131.3V486h-131.3zm25.7 44.6v14.7h40.9c15.7 0 31 0 46.2-.2v28.5h-87.1v33.6h105.7v28.5h-131.3V502.1z" style="fill:#9d1419"/><path d="M1342.5 604.2V485.8H1288v-25h133.9v25h-54.5v118.3h-24.9zm106 0V460.8h128v25h-103.2v93.3h103.4v25h-128.2zm43.2-62.5v-21.1h79.5v21.1zm181.8 62.5c-40 0-69.7-31.6-69.7-73.1 0-42.3 29.7-70.2 69.7-70.2h77.8v25h-77.8c-25.6 0-44.6 19.2-44.6 46.4 0 27 18.8 47 44.6 47h77.8v25h-77.8z" style="fill:#e91920"/><path d="M1050.9 388.8V245.4h128v25h-103.2v93.3h103.4v25h-128.2zm43.3-62.4v-21.1h79.5v21.1zm254.6 62.4-60.1-58.6-59.6 58.6h-32.6l77-74.5-71.4-68.9h34.5l54.7 53.2 53.9-53.2h32.6l-71.4 68.9 77.8 74.5zm100.3-39.9v-24.3h57.6c17.5 0 27.9-11.1 27.9-27.2 0-16.5-10.5-27-27.9-27h-75.9v118.3H1406V245.4h100.9c33.2 0 52.4 20 52.4 51.2 0 31-19.4 52.2-52.4 52.2h-57.8zm260.5 39.9-21.5-36.1h-67.9l11.8-20.4h44l-32-53.7-65.2 110h-28.5l82.5-137.4c2.9-4.9 6.8-8.1 12.2-8.1s9.1 3.1 12 8.1l82.6 137.4h-30.1v.2zm72.8-104.9v105h-23.9V258.6c0-9.3 4.9-14.9 12.8-14.9 3.7 0 7 1.4 10.7 5l101.3 100.5v-105h23.9v131.3c0 9.5-5 14.9-12.4 14.9-4.1 0-8-1.7-11.4-5.2zm152.9 104.9v-25h107.5c13.4 0 21-7.6 21-18.8 0-12.2-7.6-18.6-21-18.6h-66c-27 0-43.8-17.1-43.8-40.7 0-23.1 15.5-40.2 44.2-40.2h103v25h-103c-11.4 0-18.2 6.8-18.2 17.5 0 10.9 7 17.3 18 17.3h65.8c28.9 0 44.6 13.6 44.6 41.5 0 24.1-14.6 42.1-44.6 42.1zm178.8 0V245.4h25v143.4zm120.9 0c-40 0-69.7-31.6-69.7-73.1 0-42.3 29.7-70.2 69.7-70.2h34.9c41.5 0 70.2 28.5 70.2 70.2s-29.5 73.1-70.2 73.1zm34.9-25c26.4 0 45.2-20 45.2-47s-18.8-46.4-45.2-46.4H2235c-25.6 0-44.6 19.2-44.6 46.4 0 27 18.8 47 44.6 47zm117.8-79.9v105h-23.9V258.6c0-9.3 4.9-14.9 12.8-14.9 3.7 0 7 1.4 10.7 5l101.3 100.5v-105h23.9v131.3c0 9.5-5 14.9-12.4 14.9-4.1 0-8-1.7-11.4-5.2z" fill="#fff"/></svg>